ffmpeg started on 2025-06-06 at 15:17:47
Report written to "D:\Convert\FFMetrics\reports\psnr_report-6.txt"
Log level: 32
Command line:
ffmpeg -hide_banner -nostdin -i "G:\\\xc0\xed\xe8\xec\xe5\\\xce\xed\xe3\xee\xe8\xed\xe3\xe8\\!_36_\xce\xf1\xe5\xed\xfc_2024\\DreamCast\\\xcd\xe8\xed\xe0 \xe2 \xea\xee\xf0\xee\xeb\xe5\xe2\xf1\xf2\xe2\xe5 \xe7\xe2\xb8\xe7\xe4\\[DC] Hoshi Furu Oukoku no Nina - 05_Telegram_HEVC.mkv" -i "G:\\\xc0\xed\xe8\xec\xe5\\\xce\xed\xe3\xee\xe8\xed\xe3\xe8\\!_36_\xce\xf1\xe5\xed\xfc_2024\\DreamCast\\\xcd\xe8\xed\xe0 \xe2 \xea\xee\xf0\xee\xeb\xe5\xe2\xf1\xf2\xe2\xe5 \xe7\xe2\xb8\xe7\xe4\\[DC] Hoshi Furu Oukoku no Nina - 05_Telegram.mp4" -lavfi "[0:v]settb=AVTB,setpts=PTS-STARTPTS,format=pix_fmts=yuv420p10,fps=24000/1001,scale=1920:1080:flags=bicubic[main];[1:v]settb=AVTB,setpts=PTS-STARTPTS,format=pix_fmts=yuv420p,fps=24000/1001,scale=1920:1080:flags=bicubic[ref];[main][ref]psnr=eof_action=endall:stats_file='D\\:/Convert/FFMetrics/logs/psnr_logfile-6.txt'" -f null -
Input #0, matroska,webm, from 'G:\Аниме\Онгоинги\!_36_Осень_2024\DreamCast\Нина в королевстве звёзд\[DC] Hoshi Furu Oukoku no Nina - 05_Telegram_HEVC.mkv':
  Metadata:
    COMPATIBLE_BRANDS: isomiso2avc1mp41
    MAJOR_BRAND     : isom
    MINOR_VERSION   : 512
    ENCODER         : Lavf61.7.100
  Duration: 00:23:46.65, start: -0.021000, bitrate: 887 kb/s
  Stream #0:0: Video: hevc (Main 10), yuv420p10le(tv, bt709, progressive), 1920x1080 [SAR 1:1 DAR 16:9], 23.98 fps, 23.98 tbr, 1k tbn (default)
      Metadata:
        HANDLER_NAME    : VideoHandler
        VENDOR_ID       : [0][0][0][0]
        ENCODER         : Lavc61.19.100 libx265
        BPS             : 689659
        DURATION        : 00:23:46.549708333
        NUMBER_OF_FRAMES: 34203
        NUMBER_OF_BYTES : 122979146
        _STATISTICS_WRITING_APP: mkvpropedit v66.0.0 ('Josie') 64-bit
        _STATISTICS_WRITING_DATE_UTC: 2025-06-01 12:31:54
        _STATISTICS_TAGS: BPS DURATION NUMBER_OF_FRAMES NUMBER_OF_BYTES
  Stream #0:1: Audio: aac (LC), 48000 Hz, stereo, fltp (default)
      Metadata:
        HANDLER_NAME    : SoundHandler
        VENDOR_ID       : [0][0][0][0]
        ENCODER         : Lavc61.19.100 aac
        BPS             : 193838
        DURATION        : 00:23:46.645000000
        NUMBER_OF_FRAMES: 66875
        NUMBER_OF_BYTES : 34567274
        _STATISTICS_WRITING_APP: mkvpropedit v66.0.0 ('Josie') 64-bit
        _STATISTICS_WRITING_DATE_UTC: 2025-06-01 12:31:54
        _STATISTICS_TAGS: BPS DURATION NUMBER_OF_FRAMES NUMBER_OF_BYTES
Input #1, mov,mp4,m4a,3gp,3g2,mj2, from 'G:\Аниме\Онгоинги\!_36_Осень_2024\DreamCast\Нина в королевстве звёзд\[DC] Hoshi Furu Oukoku no Nina - 05_Telegram.mp4':
  Metadata:
    major_brand     : isom
    minor_version   : 512
    compatible_brands: isomiso2avc1mp41
    encoder         : Lavf61.1.100
  Duration: 00:23:46.62, start: 0.000000, bitrate: 3835 kb/s
  Stream #1:0[0x1](und): Video: h264 (High) (avc1 / 0x31637661), yuv420p(tv, bt709, progressive), 1920x1080 [SAR 1:1 DAR 16:9], 3687 kb/s, 23.98 fps, 23.98 tbr, 24k tbn (default)
      Metadata:
        handler_name    : VideoHandler
        vendor_id       : [0][0][0][0]
        encoder         : Lavc61.3.100 h264_qsv
  Stream #1:1[0x2](und): Audio: aac (HE-AACv2) (mp4a / 0x6134706D), 48000 Hz, stereo, fltp, 144 kb/s (default)
      Metadata:
        handler_name    : SoundHandler
        vendor_id       : [0][0][0][0]
Stream mapping:
  Stream #0:0 (hevc) -> settb:default
  Stream #1:0 (h264) -> settb:default
  psnr:default -> Stream #0:0 (wrapped_avframe)
  Stream #0:1 -> #0:1 (aac (native) -> pcm_s16le (native))
Output #0, null, to 'pipe:':
  Metadata:
    COMPATIBLE_BRANDS: isomiso2avc1mp41
    MAJOR_BRAND     : isom
    MINOR_VERSION   : 512
    encoder         : Lavf61.7.100
  Stream #0:0: Video: wrapped_avframe, yuv420p10le(tv, bt709, progressive), 1920x1080 [SAR 1:1 DAR 16:9], q=2-31, 200 kb/s, 23.98 fps, 23.98 tbn
      Metadata:
        encoder         : Lavc61.19.100 wrapped_avframe
  Stream #0:1: Audio: pcm_s16le, 48000 Hz, stereo, s16, 1536 kb/s (default)
      Metadata:
        HANDLER_NAME    : SoundHandler
        VENDOR_ID       : [0][0][0][0]
        _STATISTICS_TAGS: BPS DURATION NUMBER_OF_FRAMES NUMBER_OF_BYTES
        BPS             : 193838
        DURATION        : 00:23:46.645000000
        NUMBER_OF_FRAMES: 66875
        NUMBER_OF_BYTES : 34567274
        _STATISTICS_WRITING_APP: mkvpropedit v66.0.0 ('Josie') 64-bit
        _STATISTICS_WRITING_DATE_UTC: 2025-06-01 12:31:54
        encoder         : Lavc61.19.100 pcm_s16le
frame=  166 fps=0.0 q=-0.0 size=N/A time=00:00:06.92 bitrate=N/A speed=13.2x    frame=  411 fps=396 q=-0.0 size=N/A time=00:00:17.14 bitrate=N/A speed=16.5x    frame=  648 fps=416 q=-0.0 size=N/A time=00:00:27.02 bitrate=N/A speed=17.4x    frame=  883 fps=428 q=-0.0 size=N/A time=00:00:36.82 bitrate=N/A speed=17.9x    frame= 1119 fps=433 q=-0.0 size=N/A time=00:00:46.67 bitrate=N/A speed=18.1x    frame= 1296 fps=418 q=-0.0 size=N/A time=00:00:54.05 bitrate=N/A speed=17.4x    frame= 1469 fps=407 q=-0.0 size=N/A time=00:01:01.26 bitrate=N/A speed=  17x    frame= 1654 fps=400 q=-0.0 size=N/A time=00:01:08.98 bitrate=N/A speed=16.7x    frame= 1842 fps=396 q=-0.0 size=N/A time=00:01:16.82 bitrate=N/A speed=16.5x    frame= 2015 fps=391 q=-0.0 size=N/A time=00:01:24.04 bitrate=N/A speed=16.3x    frame= 2191 fps=386 q=-0.0 size=N/A time=00:01:31.38 bitrate=N/A speed=16.1x    frame= 2369 fps=382 q=-0.0 size=N/A time=00:01:38.80 bitrate=N/A speed=15.9x    frame= 2539 fps=379 q=-0.0 size=N/A time=00:01:45.89 bitrate=N/A speed=15.8x    frame= 2769 fps=383 q=-0.0 size=N/A time=00:01:55.49 bitrate=N/A speed=  16x    frame= 2941 fps=380 q=-0.0 size=N/A time=00:02:02.66 bitrate=N/A speed=15.9x    frame= 3167 fps=384 q=-0.0 size=N/A time=00:02:12.09 bitrate=N/A speed=  16x    frame= 3357 fps=383 q=-0.0 size=N/A time=00:02:20.01 bitrate=N/A speed=  16x    frame= 3567 fps=384 q=-0.0 size=N/A time=00:02:28.77 bitrate=N/A speed=  16x    frame= 3792 fps=387 q=-0.0 size=N/A time=00:02:38.15 bitrate=N/A speed=16.1x    frame= 4036 fps=391 q=-0.0 size=N/A time=00:02:48.33 bitrate=N/A speed=16.3x    frame= 4291 fps=396 q=-0.0 size=N/A time=00:02:58.97 bitrate=N/A speed=16.5x    frame= 4523 fps=398 q=-0.0 size=N/A time=00:03:08.64 bitrate=N/A speed=16.6x    frame= 4760 fps=401 q=-0.0 size=N/A time=00:03:18.53 bitrate=N/A speed=16.7x    frame= 4990 fps=403 q=-0.0 size=N/A time=00:03:28.12 bitrate=N/A speed=16.8x    frame= 5207 fps=404 q=-0.0 size=N/A time=00:03:37.17 bitrate=N/A speed=16.8x    frame= 5439 fps=406 q=-0.0 size=N/A time=00:03:46.85 bitrate=N/A speed=16.9x    frame= 5662 fps=406 q=-0.0 size=N/A time=00:03:56.15 bitrate=N/A speed=16.9x    frame= 5853 fps=405 q=-0.0 size=N/A time=00:04:04.11 bitrate=N/A speed=16.9x    frame= 6016 fps=402 q=-0.0 size=N/A time=00:04:10.91 bitrate=N/A speed=16.8x    frame= 6181 fps=399 q=-0.0 size=N/A time=00:04:17.79 bitrate=N/A speed=16.7x    frame= 6392 fps=400 q=-0.0 size=N/A time=00:04:26.59 bitrate=N/A speed=16.7x    frame= 6607 fps=400 q=-0.0 size=N/A time=00:04:35.56 bitrate=N/A speed=16.7x    frame= 6837 fps=401 q=-0.0 size=N/A time=00:04:45.15 bitrate=N/A speed=16.7x    frame= 7039 fps=401 q=-0.0 size=N/A time=00:04:53.58 bitrate=N/A speed=16.7x    frame= 7255 fps=401 q=-0.0 size=N/A time=00:05:02.59 bitrate=N/A speed=16.7x    frame= 7452 fps=401 q=-0.0 size=N/A time=00:05:10.81 bitrate=N/A speed=16.7x    frame= 7670 fps=402 q=-0.0 size=N/A time=00:05:19.90 bitrate=N/A speed=16.8x    frame= 7863 fps=401 q=-0.0 size=N/A time=00:05:27.95 bitrate=N/A speed=16.7x    frame= 8080 fps=401 q=-0.0 size=N/A time=00:05:37.00 bitrate=N/A speed=16.7x    frame= 8263 fps=400 q=-0.0 size=N/A time=00:05:44.63 bitrate=N/A speed=16.7x    frame= 8467 fps=400 q=-0.0 size=N/A time=00:05:53.14 bitrate=N/A speed=16.7x    frame= 8663 fps=400 q=-0.0 size=N/A time=00:06:01.31 bitrate=N/A speed=16.7x    frame= 8898 fps=401 q=-0.0 size=N/A time=00:06:11.12 bitrate=N/A speed=16.7x    frame= 9134 fps=402 q=-0.0 size=N/A time=00:06:20.96 bitrate=N/A speed=16.8x    frame= 9348 fps=403 q=-0.0 size=N/A time=00:06:29.88 bitrate=N/A speed=16.8x    frame= 9563 fps=403 q=-0.0 size=N/A time=00:06:38.85 bitrate=N/A speed=16.8x    frame= 9781 fps=403 q=-0.0 size=N/A time=00:06:47.94 bitrate=N/A speed=16.8x    frame=10019 fps=404 q=-0.0 size=N/A time=00:06:57.87 bitrate=N/A speed=16.9x    frame=10219 fps=404 q=-0.0 size=N/A time=00:07:06.21 bitrate=N/A speed=16.9x    frame=10466 fps=406 q=-0.0 size=N/A time=00:07:16.51 bitrate=N/A speed=16.9x    frame=10709 fps=407 q=-0.0 size=N/A time=00:07:26.65 bitrate=N/A speed=  17x    frame=10940 fps=408 q=-0.0 size=N/A time=00:07:36.28 bitrate=N/A speed=  17x    frame=11194 fps=409 q=-0.0 size=N/A time=00:07:46.88 bitrate=N/A speed=17.1x    frame=11411 fps=410 q=-0.0 size=N/A time=00:07:55.93 bitrate=N/A speed=17.1x    frame=11628 fps=410 q=-0.0 size=N/A time=00:08:04.98 bitrate=N/A speed=17.1x    frame=11882 fps=411 q=-0.0 size=N/A time=00:08:15.57 bitrate=N/A speed=17.1x    frame=12065 fps=410 q=-0.0 size=N/A time=00:08:23.21 bitrate=N/A speed=17.1x    frame=12235 fps=409 q=-0.0 size=N/A time=00:08:30.30 bitrate=N/A speed=17.1x    frame=12424 fps=408 q=-0.0 size=N/A time=00:08:38.18 bitrate=N/A speed=  17x    frame=12678 fps=410 q=-0.0 size=N/A time=00:08:48.77 bitrate=N/A speed=17.1x    frame=12920 fps=410 q=-0.0 size=N/A time=00:08:58.87 bitrate=N/A speed=17.1x    frame=13172 fps=412 q=-0.0 size=N/A time=00:09:09.38 bitrate=N/A speed=17.2x    frame=13442 fps=413 q=-0.0 size=N/A time=00:09:20.64 bitrate=N/A speed=17.2x    frame=13687 fps=414 q=-0.0 size=N/A time=00:09:30.86 bitrate=N/A speed=17.3x    frame=13932 fps=415 q=-0.0 size=N/A time=00:09:41.12 bitrate=N/A speed=17.3x    frame=14199 fps=417 q=-0.0 size=N/A time=00:09:52.21 bitrate=N/A speed=17.4x    frame=14446 fps=418 q=-0.0 size=N/A time=00:10:02.51 bitrate=N/A speed=17.4x    frame=14704 fps=419 q=-0.0 size=N/A time=00:10:13.27 bitrate=N/A speed=17.5x    frame=14958 fps=420 q=-0.0 size=N/A time=00:10:23.87 bitrate=N/A speed=17.5x    frame=15199 fps=421 q=-0.0 size=N/A time=00:10:33.92 bitrate=N/A speed=17.6x    frame=15439 fps=421 q=-0.0 size=N/A time=00:10:43.93 bitrate=N/A speed=17.6x    frame=15689 fps=422 q=-0.0 size=N/A time=00:10:54.36 bitrate=N/A speed=17.6x    frame=15948 fps=423 q=-0.0 size=N/A time=00:11:05.16 bitrate=N/A speed=17.7x    frame=16187 fps=424 q=-0.0 size=N/A time=00:11:15.13 bitrate=N/A speed=17.7x    frame=16426 fps=424 q=-0.0 size=N/A time=00:11:25.10 bitrate=N/A speed=17.7x    frame=16682 fps=425 q=-0.0 size=N/A time=00:11:35.77 bitrate=N/A speed=17.7x    frame=16935 fps=426 q=-0.0 size=N/A time=00:11:46.33 bitrate=N/A speed=17.8x    frame=17186 fps=427 q=-0.0 size=N/A time=00:11:56.79 bitrate=N/A speed=17.8x    frame=17399 fps=427 q=-0.0 size=N/A time=00:12:05.68 bitrate=N/A speed=17.8x    frame=17601 fps=426 q=-0.0 size=N/A time=00:12:14.10 bitrate=N/A speed=17.8x    frame=17810 fps=426 q=-0.0 size=N/A time=00:12:22.82 bitrate=N/A speed=17.8x    frame=18042 fps=426 q=-0.0 size=N/A time=00:12:32.50 bitrate=N/A speed=17.8x    frame=18295 fps=427 q=-0.0 size=N/A time=00:12:43.05 bitrate=N/A speed=17.8x    frame=18542 fps=428 q=-0.0 size=N/A time=00:12:53.35 bitrate=N/A speed=17.8x    frame=18784 fps=428 q=-0.0 size=N/A time=00:13:03.44 bitrate=N/A speed=17.9x    frame=19028 fps=429 q=-0.0 size=N/A time=00:13:13.62 bitrate=N/A speed=17.9x    frame=19290 fps=430 q=-0.0 size=N/A time=00:13:24.55 bitrate=N/A speed=17.9x    frame=19556 fps=431 q=-0.0 size=N/A time=00:13:35.64 bitrate=N/A speed=  18x    frame=19779 fps=431 q=-0.0 size=N/A time=00:13:44.94 bitrate=N/A speed=  18x    frame=19999 fps=431 q=-0.0 size=N/A time=00:13:54.12 bitrate=N/A speed=  18x    frame=20248 fps=431 q=-0.0 size=N/A time=00:14:04.51 bitrate=N/A speed=  18x    frame=20491 fps=432 q=-0.0 size=N/A time=00:14:14.64 bitrate=N/A speed=  18x    frame=20738 fps=432 q=-0.0 size=N/A time=00:14:24.94 bitrate=N/A speed=  18x    frame=20988 fps=433 q=-0.0 size=N/A time=00:14:35.37 bitrate=N/A speed=  18x    frame=21253 fps=434 q=-0.0 size=N/A time=00:14:46.42 bitrate=N/A speed=18.1x    frame=21464 fps=433 q=-0.0 size=N/A time=00:14:55.22 bitrate=N/A speed=18.1x    frame=21729 fps=434 q=-0.0 size=N/A time=00:15:06.28 bitrate=N/A speed=18.1x    frame=21974 fps=435 q=-0.0 size=N/A time=00:15:16.49 bitrate=N/A speed=18.1x    frame=22218 fps=435 q=-0.0 size=N/A time=00:15:26.67 bitrate=N/A speed=18.1x    frame=22444 fps=435 q=-0.0 size=N/A time=00:15:36.10 bitrate=N/A speed=18.1x    frame=22699 fps=436 q=-0.0 size=N/A time=00:15:46.77 bitrate=N/A speed=18.2x    frame=22968 fps=436 q=-0.0 size=N/A time=00:15:57.95 bitrate=N/A speed=18.2x    frame=23216 fps=437 q=-0.0 size=N/A time=00:16:08.30 bitrate=N/A speed=18.2x    frame=23439 fps=437 q=-0.0 size=N/A time=00:16:17.60 bitrate=N/A speed=18.2x    frame=23624 fps=436 q=-0.0 size=N/A time=00:16:25.31 bitrate=N/A speed=18.2x    frame=23853 fps=436 q=-0.0 size=N/A time=00:16:34.86 bitrate=N/A speed=18.2x    frame=24103 fps=437 q=-0.0 size=N/A time=00:16:45.29 bitrate=N/A speed=18.2x    frame=24358 fps=437 q=-0.0 size=N/A time=00:16:55.93 bitrate=N/A speed=18.2x    frame=24615 fps=438 q=-0.0 size=N/A time=00:17:06.65 bitrate=N/A speed=18.3x    frame=24846 fps=438 q=-0.0 size=N/A time=00:17:16.28 bitrate=N/A speed=18.3x    frame=25068 fps=438 q=-0.0 size=N/A time=00:17:25.54 bitrate=N/A speed=18.3x    frame=25328 fps=438 q=-0.0 size=N/A time=00:17:36.38 bitrate=N/A speed=18.3x    frame=25603 fps=439 q=-0.0 size=N/A time=00:17:47.85 bitrate=N/A speed=18.3x    frame=25849 fps=439 q=-0.0 size=N/A time=00:17:58.11 bitrate=N/A speed=18.3x    frame=26084 fps=440 q=-0.0 size=N/A time=00:18:07.92 bitrate=N/A speed=18.3x    frame=26342 fps=440 q=-0.0 size=N/A time=00:18:18.68 bitrate=N/A speed=18.4x    frame=26594 fps=441 q=-0.0 size=N/A time=00:18:29.19 bitrate=N/A speed=18.4x    frame=26843 fps=441 q=-0.0 size=N/A time=00:18:39.57 bitrate=N/A speed=18.4x    frame=27107 fps=441 q=-0.0 size=N/A time=00:18:50.58 bitrate=N/A speed=18.4x    frame=27344 fps=442 q=-0.0 size=N/A time=00:19:00.47 bitrate=N/A speed=18.4x    frame=27594 fps=442 q=-0.0 size=N/A time=00:19:10.89 bitrate=N/A speed=18.4x    frame=27856 fps=443 q=-0.0 size=N/A time=00:19:21.82 bitrate=N/A speed=18.5x    frame=28113 fps=443 q=-0.0 size=N/A time=00:19:32.54 bitrate=N/A speed=18.5x    frame=28327 fps=443 q=-0.0 size=N/A time=00:19:41.47 bitrate=N/A speed=18.5x    frame=28561 fps=443 q=-0.0 size=N/A time=00:19:51.23 bitrate=N/A speed=18.5x    frame=28785 fps=443 q=-0.0 size=N/A time=00:20:00.57 bitrate=N/A speed=18.5x    frame=29037 fps=443 q=-0.0 size=N/A time=00:20:11.12 bitrate=N/A speed=18.5x    frame=29278 fps=443 q=-0.0 size=N/A time=00:20:21.13 bitrate=N/A speed=18.5x    frame=29514 fps=443 q=-0.0 size=N/A time=00:20:30.97 bitrate=N/A speed=18.5x    frame=29754 fps=444 q=-0.0 size=N/A time=00:20:40.98 bitrate=N/A speed=18.5x    frame=29948 fps=443 q=-0.0 size=N/A time=00:20:49.08 bitrate=N/A speed=18.5x    frame=30174 fps=443 q=-0.0 size=N/A time=00:20:58.50 bitrate=N/A speed=18.5x    frame=30443 fps=444 q=-0.0 size=N/A time=00:21:09.72 bitrate=N/A speed=18.5x    frame=30705 fps=444 q=-0.0 size=N/A time=00:21:20.65 bitrate=N/A speed=18.5x    frame=30933 fps=444 q=-0.0 size=N/A time=00:21:30.16 bitrate=N/A speed=18.5x    frame=31157 fps=444 q=-0.0 size=N/A time=00:21:39.50 bitrate=N/A speed=18.5x    frame=31348 fps=444 q=-0.0 size=N/A time=00:21:47.47 bitrate=N/A speed=18.5x    frame=31581 fps=444 q=-0.0 size=N/A time=00:21:57.19 bitrate=N/A speed=18.5x    frame=31770 fps=443 q=-0.0 size=N/A time=00:22:05.07 bitrate=N/A speed=18.5x    frame=32011 fps=443 q=-0.0 size=N/A time=00:22:15.12 bitrate=N/A speed=18.5x    frame=32242 fps=443 q=-0.0 size=N/A time=00:22:24.76 bitrate=N/A speed=18.5x    frame=32471 fps=443 q=-0.0 size=N/A time=00:22:34.31 bitrate=N/A speed=18.5x    frame=32720 fps=443 q=-0.0 size=N/A time=00:22:44.69 bitrate=N/A speed=18.5x    frame=32951 fps=444 q=-0.0 size=N/A time=00:22:54.33 bitrate=N/A speed=18.5x    frame=33172 fps=443 q=-0.0 size=N/A time=00:23:03.54 bitrate=N/A speed=18.5x    frame=33415 fps=444 q=-0.0 size=N/A time=00:23:13.68 bitrate=N/A speed=18.5x    frame=33637 fps=444 q=-0.0 size=N/A time=00:23:22.94 bitrate=N/A speed=18.5x    frame=33875 fps=444 q=-0.0 size=N/A time=00:23:32.86 bitrate=N/A speed=18.5x    frame=34104 fps=444 q=-0.0 size=N/A time=00:23:42.42 bitrate=N/A speed=18.5x    [Parsed_psnr_10 @ 0000021a3eb4bf40] PSNR y:48.966206 u:50.825512 v:51.182696 average:49.544464 min:43.283549 max:inf
[out#0/null @ 0000021a3e5e4680] video:14697KiB audio:267500KiB subtitle:0KiB other streams:0KiB global headers:0KiB muxing overhead: unknown
frame=34203 fps=444 q=-0.0 Lsize=N/A time=00:23:46.55 bitrate=N/A speed=18.5x    
